<svg xmlns="http://www.w3.org/2000/svg" width="13.57" height="15.689" viewBox="0 0 13.57 15.689">
  <g id="noun-date-1076224" transform="translate(-98.651 -80.081)">
    <path id="Path_9" data-name="Path 9" d="M174.777,81.553h-.551V80.52a.409.409,0,1,0-.816,0v1.033h-5.1V80.52a.409.409,0,1,0-.816,0v1.033h-.551a2.981,2.981,0,0,0-2.857,3.076v8.064a2.981,2.981,0,0,0,2.857,3.076H174.8a2.981,2.981,0,0,0,2.857-3.076V84.629a3,3,0,0,0-2.877-3.076Zm0,13.338h-7.836a2.13,2.13,0,0,1-2.041-2.2V86.607h11.938v6.087a2.16,2.16,0,0,1-2.061,2.2Zm2.041-9.163H164.9v-1.1a2.13,2.13,0,0,1,2.041-2.2h.551v1.033a.409.409,0,1,0,.816,0V82.432h5.1v1.033a.409.409,0,1,0,.816,0V82.432h.551a2.13,2.13,0,0,1,2.041,2.2Z" transform="translate(-65.433 0)" fill="#707070"/>
    <path id="Path_10" data-name="Path 10" d="M249.448,369.6h-4.992c-.162,0-.3.25-.3.556s.133.556.3.556h4.977c.162,0,.3-.25.3-.556s-.118-.556-.281-.556Z" transform="translate(-141.537 -278.337)" fill="#707070"/>
    <path id="Path_11" data-name="Path 11" d="M276.637,307.433h6.252a.556.556,0,1,0,0-1.111h-6.252a.556.556,0,1,0,0,1.111Z" transform="translate(-174.327 -217.503)" fill="#707070"/>
  </g>
</svg>
