<svg xmlns="http://www.w3.org/2000/svg" width="45" height="45" viewBox="0 0 45 45">
  <g id="Group_47" data-name="Group 47" transform="translate(-661 -264)">
    <g id="noun-availability-2263783" transform="translate(591 264.004)">
      <path id="Path_6" data-name="Path 6" d="M72.778,22.5A19.722,19.722,0,1,1,92.5,42.218V45A22.5,22.5,0,1,0,70,22.5Z" fill="#ea0552"/>
    </g>
    <circle id="Ellipse_1" data-name="Ellipse 1" cx="14" cy="14" r="14" transform="translate(670 273)" fill="#ea0552"/>
    <path id="Path_8" data-name="Path 8" d="M10.175-7.5,6.713-2.241,10.134,2.9H7.4L5.576-.323Q5.4-.617,5.17-1.074H5.129q-.041.091-.426.751L2.845,2.9H.125L3.657-2.2.307-7.5H3.048l1.8,3.381q.2.376.4.772h.03L7.6-7.5Z" transform="translate(678.851 289.302)" fill="#fff"/>
  </g>
</svg>
