<svg xmlns="http://www.w3.org/2000/svg" width="44.124" height="36.246" viewBox="0 0 44.124 36.246">
  <g id="noun-upload-photos-4187203" transform="translate(-80.035 -78.738)">
    <path id="Path_5" data-name="Path 5" d="M132.632,110.256H108.94a3.939,3.939,0,0,1-3.94-3.94V87.406a3.939,3.939,0,0,1,3.94-3.94h8.1l1.395-4.192a.788.788,0,0,1,.749-.536h11.031a.788.788,0,0,1,.788.536l1.355,4.192h8.1a3.939,3.939,0,0,1,3.94,3.94V98.437H142.82V87.406a2.363,2.363,0,0,0-2.364-2.364h-8.667a.788.788,0,0,1-.788-.536l-1.355-4.192h-9.9l-1.355,4.192a.788.788,0,0,1-.788.536h-8.667a2.363,2.363,0,0,0-2.364,2.364v18.91a2.363,2.363,0,0,0,2.364,2.364h23.693ZM124.7,93.71a3.151,3.151,0,1,0,2.229.923A3.153,3.153,0,0,0,124.7,93.71Zm9.455,3.152a9.455,9.455,0,1,1-2.769-6.686A9.455,9.455,0,0,1,134.153,96.861Zm-4.728,0a4.727,4.727,0,1,0-1.385,3.343A4.729,4.729,0,0,0,129.425,96.861Zm19.7,10.243a7.88,7.88,0,1,1-2.308-5.571A7.879,7.879,0,0,1,149.124,107.1Zm-4.255-2.206-3.152-2.364a.788.788,0,0,0-.946,0L137.62,104.9l.946,1.261,1.891-1.418v7.091h1.576v-7.091l1.891,1.418Z" transform="translate(-24.965)" fill="#919191"/>
  </g>
</svg>
