<svg xmlns="http://www.w3.org/2000/svg" width="17.08" height="21.751" viewBox="0 0 17.08 21.751">
  <g id="noun-money-1806108" transform="translate(-75.769 -14.004)">
    <path id="Path_226" data-name="Path 226" d="M153.026,19.727a26.057,26.057,0,0,1-3.366.206,26.317,26.317,0,0,1-3.366-.206c-2.45,2.084-5.174,5.564-5.174,8.723,0,4.968,3.824,7.3,8.54,7.3s8.54-2.335,8.54-7.3C158.2,25.268,155.476,21.811,153.026,19.727ZM150.3,31.4v.939a.181.181,0,0,1-.183.183H149.2a.181.181,0,0,1-.183-.183v-.916a1.908,1.908,0,0,1-1.763-1.694.2.2,0,0,1,.183-.183h.916a.174.174,0,0,1,.183.137.613.613,0,0,0,.6.481h.8a.946.946,0,0,0,.962-.8A.9.9,0,0,0,150,28.359h-.6a2.234,2.234,0,0,1-2.244-1.969,2.167,2.167,0,0,1,1.878-2.358v-.916a.2.2,0,0,1,.183-.183h.916a.181.181,0,0,1,.183.183v.916a1.908,1.908,0,0,1,1.763,1.694.181.181,0,0,1-.183.183h-.916a.192.192,0,0,1-.183-.137.639.639,0,0,0-.618-.481h-.8a.964.964,0,0,0-.962.8.91.91,0,0,0,.893,1.007H150a2.142,2.142,0,0,1,2.152,2.381A2.188,2.188,0,0,1,150.3,31.4Zm-.641-12.822a26.5,26.5,0,0,0,3.114-.183,11.99,11.99,0,0,0,1.213-3.389.975.975,0,0,0-1.855-.412c-.916,1.282-1.328-.6-2.381-.6s-1.6,1.74-2.427.572a1.078,1.078,0,0,0-2.015.412,10.085,10.085,0,0,0,1.122,3.411,28.225,28.225,0,0,0,3.228.183Z" transform="translate(-65.351)" fill="#fff"/>
  </g>
</svg>
