<svg xmlns="http://www.w3.org/2000/svg" width="12.454" height="15.222" viewBox="0 0 12.454 15.222">
  <g id="noun-profile-1594258" transform="translate(-130.195 -156.8)">
    <path id="Path_12" data-name="Path 12" d="M261.654,171.33a.692.692,0,0,1-1.384,0,4.843,4.843,0,0,0-9.687,0,.692.692,0,0,1-1.384,0,6.227,6.227,0,0,1,12.454,0Zm-6.227-6.919a3.806,3.806,0,1,1,3.806-3.806A3.806,3.806,0,0,1,255.427,164.411Zm0-1.384a2.422,2.422,0,1,0-2.422-2.422A2.422,2.422,0,0,0,255.427,163.027Z" transform="translate(-119.005)" fill="#707070"/>
  </g>
</svg>
